<svg xmlns="http://www.w3.org/2000/svg" xmlns:xlink="http://www.w3.org/1999/xlink" width="1080" zoomAndPan="magnify" viewBox="0 0 810 809.999993" height="1080" preserveAspectRatio="xMidYMid meet" version="1.0"><defs><g/><clipPath id="c8289ceb75"><path d="M 64.421875 56.421875 L 761.921875 56.421875 L 761.921875 753.921875 L 64.421875 753.921875 Z M 64.421875 56.421875 " clip-rule="nonzero"/></clipPath><clipPath id="38a59c7654"><path d="M 761.90625 405.171875 C 761.90625 410.878906 761.765625 416.582031 761.484375 422.28125 C 761.207031 427.980469 760.785156 433.671875 760.226562 439.351562 C 759.667969 445.03125 758.96875 450.695312 758.132812 456.339844 C 757.292969 461.984375 756.320312 467.605469 755.207031 473.203125 C 754.09375 478.800781 752.839844 484.371094 751.453125 489.90625 C 750.066406 495.441406 748.546875 500.941406 746.890625 506.402344 C 745.234375 511.863281 743.441406 517.28125 741.519531 522.65625 C 739.597656 528.027344 737.542969 533.351562 735.359375 538.625 C 733.175781 543.898438 730.863281 549.113281 728.425781 554.273438 C 725.984375 559.433594 723.417969 564.527344 720.726562 569.5625 C 718.039062 574.59375 715.226562 579.558594 712.292969 584.453125 C 709.355469 589.351562 706.304688 594.171875 703.132812 598.917969 C 699.964844 603.660156 696.675781 608.328125 693.277344 612.910156 C 689.878906 617.496094 686.367188 621.992188 682.746094 626.40625 C 679.125 630.816406 675.398438 635.136719 671.566406 639.367188 C 667.734375 643.59375 663.800781 647.726562 659.765625 651.761719 C 655.730469 655.796875 651.597656 659.730469 647.367188 663.566406 C 643.140625 667.398438 638.820312 671.125 634.40625 674.746094 C 629.996094 678.367188 625.496094 681.875 620.914062 685.277344 C 616.328125 688.675781 611.664062 691.960938 606.917969 695.132812 C 602.171875 698.300781 597.351562 701.355469 592.457031 704.289062 C 587.5625 707.222656 582.597656 710.035156 577.5625 712.726562 C 572.53125 715.417969 567.433594 717.980469 562.273438 720.421875 C 557.117188 722.863281 551.898438 725.175781 546.628906 727.359375 C 541.355469 729.542969 536.03125 731.59375 530.65625 733.519531 C 525.285156 735.441406 519.867188 737.230469 514.40625 738.886719 C 508.941406 740.542969 503.445312 742.066406 497.90625 743.453125 C 492.371094 744.839844 486.804688 746.089844 481.207031 747.203125 C 475.609375 748.316406 469.988281 749.292969 464.34375 750.128906 C 458.695312 750.964844 453.035156 751.664062 447.355469 752.222656 C 441.675781 752.785156 435.984375 753.203125 430.285156 753.484375 C 424.582031 753.765625 418.878906 753.902344 413.171875 753.902344 C 407.464844 753.902344 401.761719 753.765625 396.0625 753.484375 C 390.359375 753.203125 384.671875 752.785156 378.992188 752.222656 C 373.3125 751.664062 367.648438 750.964844 362.003906 750.128906 C 356.355469 749.292969 350.734375 748.316406 345.136719 747.203125 C 339.539062 746.089844 333.972656 744.839844 328.4375 743.453125 C 322.902344 742.066406 317.402344 740.542969 311.941406 738.886719 C 306.480469 737.230469 301.0625 735.441406 295.6875 733.519531 C 290.3125 731.59375 284.992188 729.542969 279.71875 727.359375 C 274.445312 725.175781 269.230469 722.863281 264.070312 720.421875 C 258.910156 717.980469 253.8125 715.417969 248.78125 712.726562 C 243.746094 710.035156 238.78125 707.222656 233.886719 704.289062 C 228.992188 701.355469 224.171875 698.300781 219.425781 695.132812 C 214.679688 691.960938 210.015625 688.675781 205.433594 685.277344 C 200.847656 681.875 196.351562 678.367188 191.9375 674.746094 C 187.527344 671.125 183.207031 667.398438 178.976562 663.566406 C 174.75 659.730469 170.617188 655.796875 166.582031 651.761719 C 162.546875 647.726562 158.609375 643.59375 154.777344 639.367188 C 150.945312 635.136719 147.21875 630.816406 143.597656 626.40625 C 139.976562 621.992188 136.46875 617.496094 133.066406 612.910156 C 129.667969 608.328125 126.382812 603.660156 123.210938 598.917969 C 120.039062 594.171875 116.988281 589.351562 114.054688 584.453125 C 111.121094 579.558594 108.308594 574.59375 105.617188 569.5625 C 102.925781 564.527344 100.363281 559.433594 97.921875 554.273438 C 95.480469 549.113281 93.167969 543.898438 90.984375 538.625 C 88.800781 533.351562 86.746094 528.027344 84.824219 522.65625 C 82.902344 517.28125 81.113281 511.863281 79.457031 506.402344 C 77.796875 500.941406 76.277344 495.441406 74.890625 489.90625 C 73.503906 484.371094 72.253906 478.800781 71.140625 473.203125 C 70.027344 467.605469 69.050781 461.984375 68.214844 456.339844 C 67.375 450.695312 66.675781 445.03125 66.117188 439.351562 C 65.558594 433.671875 65.140625 427.980469 64.859375 422.28125 C 64.578125 416.582031 64.4375 410.878906 64.4375 405.171875 C 64.4375 399.464844 64.578125 393.757812 64.859375 388.058594 C 65.140625 382.359375 65.558594 376.667969 66.117188 370.988281 C 66.675781 365.308594 67.375 359.644531 68.214844 354 C 69.050781 348.355469 70.027344 342.734375 71.140625 337.136719 C 72.253906 331.539062 73.503906 325.972656 74.890625 320.433594 C 76.277344 314.898438 77.796875 309.398438 79.457031 303.9375 C 81.113281 298.476562 82.902344 293.058594 84.824219 287.683594 C 86.746094 282.3125 88.800781 276.988281 90.984375 271.714844 C 93.167969 266.441406 95.480469 261.226562 97.921875 256.066406 C 100.363281 250.90625 102.925781 245.8125 105.617188 240.777344 C 108.308594 235.746094 111.121094 230.78125 114.054688 225.886719 C 116.988281 220.988281 120.039062 216.167969 123.210938 211.425781 C 126.382812 206.679688 129.667969 202.015625 133.066406 197.429688 C 136.46875 192.847656 139.976562 188.347656 143.597656 183.9375 C 147.21875 179.523438 150.945312 175.203125 154.777344 170.976562 C 158.609375 166.746094 162.546875 162.613281 166.582031 158.578125 C 170.617188 154.542969 174.75 150.609375 178.976562 146.777344 C 183.207031 142.941406 187.527344 139.214844 191.9375 135.59375 C 196.351562 131.976562 200.847656 128.464844 205.433594 125.066406 C 210.015625 121.664062 214.679688 118.378906 219.425781 115.207031 C 224.171875 112.039062 228.992188 108.984375 233.886719 106.050781 C 238.78125 103.117188 243.746094 100.304688 248.78125 97.613281 C 253.8125 94.925781 258.910156 92.359375 264.070312 89.917969 C 269.230469 87.480469 274.445312 85.167969 279.71875 82.984375 C 284.992188 80.796875 290.3125 78.746094 295.6875 76.824219 C 301.0625 74.898438 306.480469 73.109375 311.941406 71.453125 C 317.402344 69.796875 322.902344 68.273438 328.4375 66.886719 C 333.972656 65.5 339.539062 64.25 345.136719 63.136719 C 350.734375 62.023438 356.355469 61.046875 362.003906 60.210938 C 367.648438 59.375 373.3125 58.675781 378.992188 58.117188 C 384.671875 57.554688 390.359375 57.136719 396.0625 56.855469 C 401.761719 56.578125 407.464844 56.4375 413.171875 56.4375 C 418.878906 56.4375 424.582031 56.578125 430.285156 56.855469 C 435.984375 57.136719 441.675781 57.554688 447.355469 58.117188 C 453.035156 58.675781 458.695312 59.375 464.34375 60.210938 C 469.988281 61.046875 475.609375 62.023438 481.207031 63.136719 C 486.804688 64.25 492.371094 65.5 497.90625 66.886719 C 503.445312 68.273438 508.941406 69.796875 514.40625 71.453125 C 519.867188 73.109375 525.285156 74.898438 530.65625 76.824219 C 536.03125 78.746094 541.355469 80.796875 546.628906 82.984375 C 551.898438 85.167969 557.117188 87.480469 562.273438 89.917969 C 567.433594 92.359375 572.53125 94.925781 577.5625 97.613281 C 582.597656 100.304688 587.5625 103.117188 592.457031 106.050781 C 597.351562 108.984375 602.171875 112.039062 606.917969 115.207031 C 611.664062 118.378906 616.328125 121.664062 620.914062 125.066406 C 625.496094 128.464844 629.996094 131.976562 634.40625 135.59375 C 638.820312 139.214844 643.140625 142.941406 647.367188 146.777344 C 651.597656 150.609375 655.730469 154.542969 659.765625 158.578125 C 663.800781 162.613281 667.734375 166.746094 671.566406 170.976562 C 675.398438 175.203125 679.125 179.523438 682.746094 183.9375 C 686.367188 188.347656 689.878906 192.847656 693.277344 197.429688 C 696.675781 202.015625 699.964844 206.679688 703.132812 211.425781 C 706.304688 216.167969 709.355469 220.988281 712.292969 225.886719 C 715.226562 230.78125 718.039062 235.746094 720.726562 240.777344 C 723.417969 245.8125 725.984375 250.90625 728.425781 256.066406 C 730.863281 261.226562 733.175781 266.441406 735.359375 271.714844 C 737.542969 276.988281 739.597656 282.3125 741.519531 287.683594 C 743.441406 293.058594 745.234375 298.476562 746.890625 303.9375 C 748.546875 309.398438 750.066406 314.898438 751.453125 320.433594 C 752.839844 325.972656 754.09375 331.539062 755.207031 337.136719 C 756.320312 342.734375 757.292969 348.355469 758.132812 354 C 758.96875 359.644531 759.667969 365.308594 760.226562 370.988281 C 760.785156 376.667969 761.207031 382.359375 761.484375 388.058594 C 761.765625 393.757812 761.90625 399.464844 761.90625 405.171875 Z M 761.90625 405.171875 " clip-rule="nonzero"/></clipPath><linearGradient x1="250" gradientTransform="matrix(1.645823, 0, 0, 1.645823, 1.716727, -6.28557)" y1="38.109993" x2="250" gradientUnits="userSpaceOnUse" y2="461.889982" id="7fa4ef6586"><stop stop-opacity="1" stop-color="rgb(0%, 93.699646%, 66.299438%)" offset="0"/><stop stop-opacity="1" stop-color="rgb(0.0961304%, 93.464661%, 66.407776%)" offset="0.00390625"/><stop stop-opacity="1" stop-color="rgb(0.192261%, 93.231201%, 66.516113%)" offset="0.0078125"/><stop stop-opacity="1" stop-color="rgb(0.288391%, 92.996216%, 66.624451%)" offset="0.0117188"/><stop stop-opacity="1" stop-color="rgb(0.384521%, 92.76123%, 66.734314%)" offset="0.015625"/><stop stop-opacity="1" stop-color="rgb(0.480652%, 92.526245%, 66.842651%)" offset="0.0195312"/><stop stop-opacity="1" stop-color="rgb(0.578308%, 92.292786%, 66.950989%)" offset="0.0234375"/><stop stop-opacity="1" stop-color="rgb(0.674438%, 92.0578%, 67.059326%)" offset="0.0273438"/><stop stop-opacity="1" stop-color="rgb(0.770569%, 91.824341%, 67.167664%)" offset="0.03125"/><stop stop-opacity="1" stop-color="rgb(0.866699%, 91.589355%, 67.276001%)" offset="0.0351562"/><stop stop-opacity="1" stop-color="rgb(0.964355%, 91.355896%, 67.385864%)" offset="0.0390625"/><stop stop-opacity="1" stop-color="rgb(1.060486%, 91.120911%, 67.494202%)" offset="0.0429688"/><stop stop-opacity="1" stop-color="rgb(1.156616%, 90.887451%, 67.602539%)" offset="0.046875"/><stop stop-opacity="1" stop-color="rgb(1.252747%, 90.652466%, 67.710876%)" offset="0.0507812"/><stop stop-opacity="1" stop-color="rgb(1.350403%, 90.41748%, 67.819214%)" offset="0.0546875"/><stop stop-opacity="1" stop-color="rgb(1.446533%, 90.182495%, 67.927551%)" offset="0.0585937"/><stop stop-opacity="1" stop-color="rgb(1.542664%, 89.949036%, 68.037415%)" offset="0.0625"/><stop stop-opacity="1" stop-color="rgb(1.638794%, 89.71405%, 68.145752%)" offset="0.0664062"/><stop stop-opacity="1" stop-color="rgb(1.73645%, 89.480591%, 68.254089%)" offset="0.0703125"/><stop stop-opacity="1" stop-color="rgb(1.832581%, 89.245605%, 68.362427%)" offset="0.0742188"/><stop stop-opacity="1" stop-color="rgb(1.928711%, 89.012146%, 68.470764%)" offset="0.078125"/><stop stop-opacity="1" stop-color="rgb(2.024841%, 88.777161%, 68.579102%)" offset="0.0820313"/><stop stop-opacity="1" stop-color="rgb(2.122498%, 88.543701%, 68.688965%)" offset="0.0859375"/><stop stop-opacity="1" stop-color="rgb(2.218628%, 88.308716%, 68.797302%)" offset="0.0898437"/><stop stop-opacity="1" stop-color="rgb(2.314758%, 88.07373%, 68.90564%)" offset="0.09375"/><stop stop-opacity="1" stop-color="rgb(2.410889%, 87.838745%, 69.013977%)" offset="0.0976562"/><stop stop-opacity="1" stop-color="rgb(2.508545%, 87.605286%, 69.122314%)" offset="0.101562"/><stop stop-opacity="1" stop-color="rgb(2.604675%, 87.3703%, 69.230652%)" offset="0.105469"/><stop stop-opacity="1" stop-color="rgb(2.700806%, 87.136841%, 69.340515%)" offset="0.109375"/><stop stop-opacity="1" stop-color="rgb(2.796936%, 86.901855%, 69.448853%)" offset="0.113281"/><stop stop-opacity="1" stop-color="rgb(2.893066%, 86.668396%, 69.55719%)" offset="0.117187"/><stop stop-opacity="1" stop-color="rgb(2.989197%, 86.433411%, 69.665527%)" offset="0.121094"/><stop stop-opacity="1" stop-color="rgb(3.086853%, 86.199951%, 69.773865%)" offset="0.125"/><stop stop-opacity="1" stop-color="rgb(3.182983%, 85.964966%, 69.882202%)" offset="0.128906"/><stop stop-opacity="1" stop-color="rgb(3.279114%, 85.72998%, 69.992065%)" offset="0.132812"/><stop stop-opacity="1" stop-color="rgb(3.375244%, 85.494995%, 70.100403%)" offset="0.136719"/><stop stop-opacity="1" stop-color="rgb(3.4729%, 85.261536%, 70.20874%)" offset="0.140625"/><stop stop-opacity="1" stop-color="rgb(3.569031%, 85.02655%, 70.317078%)" offset="0.144531"/><stop stop-opacity="1" stop-color="rgb(3.665161%, 84.793091%, 70.425415%)" offset="0.148438"/><stop stop-opacity="1" stop-color="rgb(3.761292%, 84.558105%, 70.533752%)" offset="0.152344"/><stop stop-opacity="1" stop-color="rgb(3.858948%, 84.324646%, 70.643616%)" offset="0.15625"/><stop stop-opacity="1" stop-color="rgb(3.955078%, 84.089661%, 70.751953%)" offset="0.160156"/><stop stop-opacity="1" stop-color="rgb(4.051208%, 83.856201%, 70.860291%)" offset="0.164062"/><stop stop-opacity="1" stop-color="rgb(4.147339%, 83.621216%, 70.968628%)" offset="0.167969"/><stop stop-opacity="1" stop-color="rgb(4.244995%, 83.38623%, 71.076965%)" offset="0.171875"/><stop stop-opacity="1" stop-color="rgb(4.341125%, 83.151245%, 71.185303%)" offset="0.175781"/><stop stop-opacity="1" stop-color="rgb(4.437256%, 82.917786%, 71.295166%)" offset="0.179688"/><stop stop-opacity="1" stop-color="rgb(4.533386%, 82.6828%, 71.403503%)" offset="0.183594"/><stop stop-opacity="1" stop-color="rgb(4.631042%, 82.449341%, 71.511841%)" offset="0.1875"/><stop stop-opacity="1" stop-color="rgb(4.727173%, 82.214355%, 71.620178%)" offset="0.191406"/><stop stop-opacity="1" stop-color="rgb(4.823303%, 81.980896%, 71.728516%)" offset="0.195313"/><stop stop-opacity="1" stop-color="rgb(4.919434%, 81.745911%, 71.836853%)" offset="0.199219"/><stop stop-opacity="1" stop-color="rgb(5.01709%, 81.512451%, 71.946716%)" offset="0.203125"/><stop stop-opacity="1" stop-color="rgb(5.11322%, 81.277466%, 72.055054%)" offset="0.207031"/><stop stop-opacity="1" stop-color="rgb(5.209351%, 81.04248%, 72.163391%)" offset="0.210937"/><stop stop-opacity="1" stop-color="rgb(5.305481%, 80.807495%, 72.271729%)" offset="0.214844"/><stop stop-opacity="1" stop-color="rgb(5.401611%, 80.574036%, 72.380066%)" offset="0.21875"/><stop stop-opacity="1" stop-color="rgb(5.497742%, 80.33905%, 72.488403%)" offset="0.222656"/><stop stop-opacity="1" stop-color="rgb(5.595398%, 80.105591%, 72.598267%)" offset="0.226562"/><stop stop-opacity="1" stop-color="rgb(5.691528%, 79.870605%, 72.706604%)" offset="0.230469"/><stop stop-opacity="1" stop-color="rgb(5.787659%, 79.637146%, 72.814941%)" offset="0.234375"/><stop stop-opacity="1" stop-color="rgb(5.883789%, 79.402161%, 72.923279%)" offset="0.238281"/><stop stop-opacity="1" stop-color="rgb(5.981445%, 79.168701%, 73.031616%)" offset="0.242188"/><stop stop-opacity="1" stop-color="rgb(6.077576%, 78.933716%, 73.139954%)" offset="0.246094"/><stop stop-opacity="1" stop-color="rgb(6.173706%, 78.69873%, 73.249817%)" offset="0.25"/><stop stop-opacity="1" stop-color="rgb(6.269836%, 78.463745%, 73.358154%)" offset="0.253906"/><stop stop-opacity="1" stop-color="rgb(6.367493%, 78.230286%, 73.466492%)" offset="0.257812"/><stop stop-opacity="1" stop-color="rgb(6.463623%, 77.9953%, 73.574829%)" offset="0.261719"/><stop stop-opacity="1" stop-color="rgb(6.559753%, 77.761841%, 73.683167%)" offset="0.265625"/><stop stop-opacity="1" stop-color="rgb(6.655884%, 77.526855%, 73.791504%)" offset="0.269531"/><stop stop-opacity="1" stop-color="rgb(6.75354%, 77.293396%, 73.901367%)" offset="0.273438"/><stop stop-opacity="1" stop-color="rgb(6.84967%, 77.058411%, 74.009705%)" offset="0.277344"/><stop stop-opacity="1" stop-color="rgb(6.945801%, 76.824951%, 74.118042%)" offset="0.28125"/><stop stop-opacity="1" stop-color="rgb(7.041931%, 76.589966%, 74.226379%)" offset="0.285156"/><stop stop-opacity="1" stop-color="rgb(7.139587%, 76.35498%, 74.334717%)" offset="0.289063"/><stop stop-opacity="1" stop-color="rgb(7.235718%, 76.119995%, 74.443054%)" offset="0.292969"/><stop stop-opacity="1" stop-color="rgb(7.331848%, 75.886536%, 74.552917%)" offset="0.296875"/><stop stop-opacity="1" stop-color="rgb(7.427979%, 75.65155%, 74.661255%)" offset="0.300781"/><stop stop-opacity="1" stop-color="rgb(7.525635%, 75.418091%, 74.769592%)" offset="0.304688"/><stop stop-opacity="1" stop-color="rgb(7.621765%, 75.183105%, 74.87793%)" offset="0.308594"/><stop stop-opacity="1" stop-color="rgb(7.717896%, 74.949646%, 74.986267%)" offset="0.3125"/><stop stop-opacity="1" stop-color="rgb(7.814026%, 74.714661%, 75.094604%)" offset="0.316406"/><stop stop-opacity="1" stop-color="rgb(7.911682%, 74.481201%, 75.204468%)" offset="0.320312"/><stop stop-opacity="1" stop-color="rgb(8.007812%, 74.246216%, 75.312805%)" offset="0.324219"/><stop stop-opacity="1" stop-color="rgb(8.103943%, 74.01123%, 75.421143%)" offset="0.328125"/><stop stop-opacity="1" stop-color="rgb(8.200073%, 73.776245%, 75.52948%)" offset="0.332031"/><stop stop-opacity="1" stop-color="rgb(8.296204%, 73.542786%, 75.637817%)" offset="0.335938"/><stop stop-opacity="1" stop-color="rgb(8.392334%, 73.3078%, 75.746155%)" offset="0.339844"/><stop stop-opacity="1" stop-color="rgb(8.48999%, 73.074341%, 75.856018%)" offset="0.34375"/><stop stop-opacity="1" stop-color="rgb(8.586121%, 72.839355%, 75.964355%)" offset="0.347656"/><stop stop-opacity="1" stop-color="rgb(8.682251%, 72.605896%, 76.072693%)" offset="0.351562"/><stop stop-opacity="1" stop-color="rgb(8.778381%, 72.370911%, 76.18103%)" offset="0.355469"/><stop stop-opacity="1" stop-color="rgb(8.876038%, 72.137451%, 76.289368%)" offset="0.359375"/><stop stop-opacity="1" stop-color="rgb(8.972168%, 71.902466%, 76.397705%)" offset="0.363281"/><stop stop-opacity="1" stop-color="rgb(9.068298%, 71.66748%, 76.507568%)" offset="0.367188"/><stop stop-opacity="1" stop-color="rgb(9.164429%, 71.432495%, 76.615906%)" offset="0.371094"/><stop stop-opacity="1" stop-color="rgb(9.262085%, 71.199036%, 76.724243%)" offset="0.375"/><stop stop-opacity="1" stop-color="rgb(9.358215%, 70.96405%, 76.832581%)" offset="0.378906"/><stop stop-opacity="1" stop-color="rgb(9.454346%, 70.730591%, 76.940918%)" offset="0.382813"/><stop stop-opacity="1" stop-color="rgb(9.550476%, 70.495605%, 77.049255%)" offset="0.386719"/><stop stop-opacity="1" stop-color="rgb(9.648132%, 70.262146%, 77.159119%)" offset="0.390625"/><stop stop-opacity="1" stop-color="rgb(9.744263%, 70.027161%, 77.267456%)" offset="0.394531"/><stop stop-opacity="1" stop-color="rgb(9.840393%, 69.793701%, 77.375793%)" offset="0.398438"/><stop stop-opacity="1" stop-color="rgb(9.936523%, 69.558716%, 77.484131%)" offset="0.402344"/><stop stop-opacity="1" stop-color="rgb(10.03418%, 69.32373%, 77.592468%)" offset="0.40625"/><stop stop-opacity="1" stop-color="rgb(10.13031%, 69.088745%, 77.700806%)" offset="0.410156"/><stop stop-opacity="1" stop-color="rgb(10.22644%, 68.855286%, 77.810669%)" offset="0.414063"/><stop stop-opacity="1" stop-color="rgb(10.322571%, 68.6203%, 77.919006%)" offset="0.417969"/><stop stop-opacity="1" stop-color="rgb(10.420227%, 68.386841%, 78.027344%)" offset="0.421875"/><stop stop-opacity="1" stop-color="rgb(10.516357%, 68.151855%, 78.135681%)" offset="0.425781"/><stop stop-opacity="1" stop-color="rgb(10.612488%, 67.918396%, 78.244019%)" offset="0.429688"/><stop stop-opacity="1" stop-color="rgb(10.708618%, 67.683411%, 78.352356%)" offset="0.433594"/><stop stop-opacity="1" stop-color="rgb(10.804749%, 67.449951%, 78.462219%)" offset="0.4375"/><stop stop-opacity="1" stop-color="rgb(10.900879%, 67.214966%, 78.570557%)" offset="0.441406"/><stop stop-opacity="1" stop-color="rgb(10.998535%, 66.97998%, 78.678894%)" offset="0.445313"/><stop stop-opacity="1" stop-color="rgb(11.094666%, 66.744995%, 78.787231%)" offset="0.449219"/><stop stop-opacity="1" stop-color="rgb(11.190796%, 66.511536%, 78.895569%)" offset="0.453125"/><stop stop-opacity="1" stop-color="rgb(11.286926%, 66.27655%, 79.003906%)" offset="0.457031"/><stop stop-opacity="1" stop-color="rgb(11.384583%, 66.043091%, 79.11377%)" offset="0.460938"/><stop stop-opacity="1" stop-color="rgb(11.480713%, 65.808105%, 79.222107%)" offset="0.464844"/><stop stop-opacity="1" stop-color="rgb(11.576843%, 65.574646%, 79.330444%)" offset="0.46875"/><stop stop-opacity="1" stop-color="rgb(11.672974%, 65.339661%, 79.438782%)" offset="0.472656"/><stop stop-opacity="1" stop-color="rgb(11.77063%, 65.106201%, 79.547119%)" offset="0.476563"/><stop stop-opacity="1" stop-color="rgb(11.86676%, 64.871216%, 79.655457%)" offset="0.480469"/><stop stop-opacity="1" stop-color="rgb(11.962891%, 64.63623%, 79.76532%)" offset="0.484375"/><stop stop-opacity="1" stop-color="rgb(12.059021%, 64.401245%, 79.873657%)" offset="0.488281"/><stop stop-opacity="1" stop-color="rgb(12.156677%, 64.167786%, 79.981995%)" offset="0.492188"/><stop stop-opacity="1" stop-color="rgb(12.252808%, 63.9328%, 80.090332%)" offset="0.496094"/><stop stop-opacity="1" stop-color="rgb(12.348938%, 63.699341%, 80.198669%)" offset="0.5"/><stop stop-opacity="1" stop-color="rgb(12.445068%, 63.464355%, 80.307007%)" offset="0.503906"/><stop stop-opacity="1" stop-color="rgb(12.542725%, 63.230896%, 80.41687%)" offset="0.507813"/><stop stop-opacity="1" stop-color="rgb(12.638855%, 62.995911%, 80.525208%)" offset="0.511719"/><stop stop-opacity="1" stop-color="rgb(12.734985%, 62.762451%, 80.633545%)" offset="0.515625"/><stop stop-opacity="1" stop-color="rgb(12.831116%, 62.527466%, 80.741882%)" offset="0.519531"/><stop stop-opacity="1" stop-color="rgb(12.928772%, 62.29248%, 80.85022%)" offset="0.523438"/><stop stop-opacity="1" stop-color="rgb(13.024902%, 62.057495%, 80.958557%)" offset="0.527344"/><stop stop-opacity="1" stop-color="rgb(13.121033%, 61.824036%, 81.06842%)" offset="0.53125"/><stop stop-opacity="1" stop-color="rgb(13.217163%, 61.58905%, 81.176758%)" offset="0.535156"/><stop stop-opacity="1" stop-color="rgb(13.314819%, 61.355591%, 81.285095%)" offset="0.539063"/><stop stop-opacity="1" stop-color="rgb(13.41095%, 61.120605%, 81.393433%)" offset="0.542969"/><stop stop-opacity="1" stop-color="rgb(13.50708%, 60.887146%, 81.50177%)" offset="0.546875"/><stop stop-opacity="1" stop-color="rgb(13.60321%, 60.652161%, 81.610107%)" offset="0.550781"/><stop stop-opacity="1" stop-color="rgb(13.699341%, 60.418701%, 81.719971%)" offset="0.554688"/><stop stop-opacity="1" stop-color="rgb(13.795471%, 60.183716%, 81.828308%)" offset="0.558594"/><stop stop-opacity="1" stop-color="rgb(13.893127%, 59.94873%, 81.936646%)" offset="0.5625"/><stop stop-opacity="1" stop-color="rgb(13.989258%, 59.713745%, 82.044983%)" offset="0.566406"/><stop stop-opacity="1" stop-color="rgb(14.085388%, 59.480286%, 82.15332%)" offset="0.570313"/><stop stop-opacity="1" stop-color="rgb(14.181519%, 59.2453%, 82.261658%)" offset="0.574219"/><stop stop-opacity="1" stop-color="rgb(14.279175%, 59.011841%, 82.371521%)" offset="0.578125"/><stop stop-opacity="1" stop-color="rgb(14.375305%, 58.776855%, 82.479858%)" offset="0.582031"/><stop stop-opacity="1" stop-color="rgb(14.471436%, 58.543396%, 82.588196%)" offset="0.585938"/><stop stop-opacity="1" stop-color="rgb(14.567566%, 58.308411%, 82.696533%)" offset="0.589844"/><stop stop-opacity="1" stop-color="rgb(14.665222%, 58.074951%, 82.804871%)" offset="0.59375"/><stop stop-opacity="1" stop-color="rgb(14.761353%, 57.839966%, 82.913208%)" offset="0.597656"/><stop stop-opacity="1" stop-color="rgb(14.857483%, 57.60498%, 83.023071%)" offset="0.601563"/><stop stop-opacity="1" stop-color="rgb(14.953613%, 57.369995%, 83.131409%)" offset="0.605469"/><stop stop-opacity="1" stop-color="rgb(15.05127%, 57.136536%, 83.239746%)" offset="0.609375"/><stop stop-opacity="1" stop-color="rgb(15.1474%, 56.90155%, 83.348083%)" offset="0.613281"/><stop stop-opacity="1" stop-color="rgb(15.24353%, 56.668091%, 83.456421%)" offset="0.617188"/><stop stop-opacity="1" stop-color="rgb(15.339661%, 56.433105%, 83.564758%)" offset="0.621094"/><stop stop-opacity="1" stop-color="rgb(15.437317%, 56.199646%, 83.674622%)" offset="0.625"/><stop stop-opacity="1" stop-color="rgb(15.533447%, 55.964661%, 83.782959%)" offset="0.628906"/><stop stop-opacity="1" stop-color="rgb(15.629578%, 55.731201%, 83.891296%)" offset="0.632812"/><stop stop-opacity="1" stop-color="rgb(15.725708%, 55.496216%, 83.999634%)" offset="0.636719"/><stop stop-opacity="1" stop-color="rgb(15.823364%, 55.26123%, 84.107971%)" offset="0.640625"/><stop stop-opacity="1" stop-color="rgb(15.919495%, 55.026245%, 84.216309%)" offset="0.644531"/><stop stop-opacity="1" stop-color="rgb(16.015625%, 54.792786%, 84.326172%)" offset="0.648438"/><stop stop-opacity="1" stop-color="rgb(16.111755%, 54.5578%, 84.434509%)" offset="0.652344"/><stop stop-opacity="1" stop-color="rgb(16.207886%, 54.324341%, 84.542847%)" offset="0.65625"/><stop stop-opacity="1" stop-color="rgb(16.304016%, 54.089355%, 84.651184%)" offset="0.660156"/><stop stop-opacity="1" stop-color="rgb(16.401672%, 53.855896%, 84.759521%)" offset="0.664062"/><stop stop-opacity="1" stop-color="rgb(16.497803%, 53.620911%, 84.867859%)" offset="0.667969"/><stop stop-opacity="1" stop-color="rgb(16.593933%, 53.387451%, 84.977722%)" offset="0.671875"/><stop stop-opacity="1" stop-color="rgb(16.690063%, 53.152466%, 85.08606%)" offset="0.675781"/><stop stop-opacity="1" stop-color="rgb(16.78772%, 52.91748%, 85.194397%)" offset="0.679687"/><stop stop-opacity="1" stop-color="rgb(16.88385%, 52.682495%, 85.302734%)" offset="0.683594"/><stop stop-opacity="1" stop-color="rgb(16.97998%, 52.449036%, 85.411072%)" offset="0.6875"/><stop stop-opacity="1" stop-color="rgb(17.076111%, 52.21405%, 85.519409%)" offset="0.691406"/><stop stop-opacity="1" stop-color="rgb(17.173767%, 51.980591%, 85.629272%)" offset="0.695312"/><stop stop-opacity="1" stop-color="rgb(17.269897%, 51.745605%, 85.73761%)" offset="0.699219"/><stop stop-opacity="1" stop-color="rgb(17.366028%, 51.512146%, 85.845947%)" offset="0.703125"/><stop stop-opacity="1" stop-color="rgb(17.462158%, 51.277161%, 85.954285%)" offset="0.707031"/><stop stop-opacity="1" stop-color="rgb(17.559814%, 51.043701%, 86.062622%)" offset="0.710938"/><stop stop-opacity="1" stop-color="rgb(17.655945%, 50.808716%, 86.170959%)" offset="0.714844"/><stop stop-opacity="1" stop-color="rgb(17.752075%, 50.57373%, 86.280823%)" offset="0.71875"/><stop stop-opacity="1" stop-color="rgb(17.848206%, 50.338745%, 86.38916%)" offset="0.722656"/><stop stop-opacity="1" stop-color="rgb(17.945862%, 50.105286%, 86.497498%)" offset="0.726563"/><stop stop-opacity="1" stop-color="rgb(18.041992%, 49.8703%, 86.605835%)" offset="0.730469"/><stop stop-opacity="1" stop-color="rgb(18.138123%, 49.636841%, 86.714172%)" offset="0.734375"/><stop stop-opacity="1" stop-color="rgb(18.234253%, 49.401855%, 86.82251%)" offset="0.738281"/><stop stop-opacity="1" stop-color="rgb(18.331909%, 49.168396%, 86.932373%)" offset="0.742188"/><stop stop-opacity="1" stop-color="rgb(18.42804%, 48.933411%, 87.04071%)" offset="0.746094"/><stop stop-opacity="1" stop-color="rgb(18.52417%, 48.699951%, 87.149048%)" offset="0.75"/><stop stop-opacity="1" stop-color="rgb(18.6203%, 48.464966%, 87.257385%)" offset="0.753906"/><stop stop-opacity="1" stop-color="rgb(18.717957%, 48.22998%, 87.365723%)" offset="0.757813"/><stop stop-opacity="1" stop-color="rgb(18.814087%, 47.994995%, 87.47406%)" offset="0.761719"/><stop stop-opacity="1" stop-color="rgb(18.910217%, 47.761536%, 87.583923%)" offset="0.765625"/><stop stop-opacity="1" stop-color="rgb(19.006348%, 47.52655%, 87.692261%)" offset="0.769531"/><stop stop-opacity="1" stop-color="rgb(19.102478%, 47.293091%, 87.800598%)" offset="0.773438"/><stop stop-opacity="1" stop-color="rgb(19.198608%, 47.058105%, 87.908936%)" offset="0.777344"/><stop stop-opacity="1" stop-color="rgb(19.296265%, 46.824646%, 88.017273%)" offset="0.78125"/><stop stop-opacity="1" stop-color="rgb(19.392395%, 46.589661%, 88.12561%)" offset="0.785156"/><stop stop-opacity="1" stop-color="rgb(19.488525%, 46.356201%, 88.235474%)" offset="0.789062"/><stop stop-opacity="1" stop-color="rgb(19.584656%, 46.121216%, 88.343811%)" offset="0.792969"/><stop stop-opacity="1" stop-color="rgb(19.682312%, 45.88623%, 88.452148%)" offset="0.796875"/><stop stop-opacity="1" stop-color="rgb(19.778442%, 45.651245%, 88.560486%)" offset="0.800781"/><stop stop-opacity="1" stop-color="rgb(19.874573%, 45.417786%, 88.668823%)" offset="0.804688"/><stop stop-opacity="1" stop-color="rgb(19.970703%, 45.1828%, 88.777161%)" offset="0.808594"/><stop stop-opacity="1" stop-color="rgb(20.068359%, 44.949341%, 88.887024%)" offset="0.8125"/><stop stop-opacity="1" stop-color="rgb(20.16449%, 44.714355%, 88.995361%)" offset="0.816406"/><stop stop-opacity="1" stop-color="rgb(20.26062%, 44.480896%, 89.103699%)" offset="0.820312"/><stop stop-opacity="1" stop-color="rgb(20.35675%, 44.245911%, 89.212036%)" offset="0.824219"/><stop stop-opacity="1" stop-color="rgb(20.454407%, 44.012451%, 89.320374%)" offset="0.828125"/><stop stop-opacity="1" stop-color="rgb(20.550537%, 43.777466%, 89.428711%)" offset="0.832031"/><stop stop-opacity="1" stop-color="rgb(20.646667%, 43.54248%, 89.538574%)" offset="0.835938"/><stop stop-opacity="1" stop-color="rgb(20.742798%, 43.307495%, 89.646912%)" offset="0.839844"/><stop stop-opacity="1" stop-color="rgb(20.840454%, 43.074036%, 89.755249%)" offset="0.84375"/><stop stop-opacity="1" stop-color="rgb(20.936584%, 42.83905%, 89.863586%)" offset="0.847656"/><stop stop-opacity="1" stop-color="rgb(21.032715%, 42.605591%, 89.971924%)" offset="0.851562"/><stop stop-opacity="1" stop-color="rgb(21.128845%, 42.370605%, 90.080261%)" offset="0.855469"/><stop stop-opacity="1" stop-color="rgb(21.226501%, 42.137146%, 90.190125%)" offset="0.859375"/><stop stop-opacity="1" stop-color="rgb(21.322632%, 41.902161%, 90.298462%)" offset="0.863281"/><stop stop-opacity="1" stop-color="rgb(21.418762%, 41.668701%, 90.406799%)" offset="0.867187"/><stop stop-opacity="1" stop-color="rgb(21.514893%, 41.433716%, 90.515137%)" offset="0.871094"/><stop stop-opacity="1" stop-color="rgb(21.611023%, 41.19873%, 90.623474%)" offset="0.875"/><stop stop-opacity="1" stop-color="rgb(21.707153%, 40.963745%, 90.731812%)" offset="0.878906"/><stop stop-opacity="1" stop-color="rgb(21.80481%, 40.730286%, 90.841675%)" offset="0.882812"/><stop stop-opacity="1" stop-color="rgb(21.90094%, 40.4953%, 90.950012%)" offset="0.886719"/><stop stop-opacity="1" stop-color="rgb(21.99707%, 40.261841%, 91.05835%)" offset="0.890625"/><stop stop-opacity="1" stop-color="rgb(22.093201%, 40.026855%, 91.166687%)" offset="0.894531"/><stop stop-opacity="1" stop-color="rgb(22.190857%, 39.793396%, 91.27655%)" offset="0.898437"/><stop stop-opacity="1" stop-color="rgb(22.286987%, 39.558411%, 91.384888%)" offset="0.902344"/><stop stop-opacity="1" stop-color="rgb(22.383118%, 39.324951%, 91.493225%)" offset="0.90625"/><stop stop-opacity="1" stop-color="rgb(22.479248%, 39.089966%, 91.601562%)" offset="0.910156"/><stop stop-opacity="1" stop-color="rgb(22.576904%, 38.85498%, 91.7099%)" offset="0.914063"/><stop stop-opacity="1" stop-color="rgb(22.673035%, 38.619995%, 91.818237%)" offset="0.917969"/><stop stop-opacity="1" stop-color="rgb(22.769165%, 38.386536%, 91.928101%)" offset="0.921875"/><stop stop-opacity="1" stop-color="rgb(22.865295%, 38.15155%, 92.036438%)" offset="0.925781"/><stop stop-opacity="1" stop-color="rgb(22.962952%, 37.918091%, 92.144775%)" offset="0.929688"/><stop stop-opacity="1" stop-color="rgb(23.059082%, 37.683105%, 92.253113%)" offset="0.933594"/><stop stop-opacity="1" stop-color="rgb(23.155212%, 37.449646%, 92.36145%)" offset="0.9375"/><stop stop-opacity="1" stop-color="rgb(23.251343%, 37.214661%, 92.469788%)" offset="0.941406"/><stop stop-opacity="1" stop-color="rgb(23.348999%, 36.981201%, 92.579651%)" offset="0.945313"/><stop stop-opacity="1" stop-color="rgb(23.445129%, 36.746216%, 92.687988%)" offset="0.949219"/><stop stop-opacity="1" stop-color="rgb(23.54126%, 36.51123%, 92.796326%)" offset="0.953125"/><stop stop-opacity="1" stop-color="rgb(23.63739%, 36.276245%, 92.904663%)" offset="0.957031"/><stop stop-opacity="1" stop-color="rgb(23.735046%, 36.042786%, 93.013%)" offset="0.960938"/><stop stop-opacity="1" stop-color="rgb(23.831177%, 35.8078%, 93.121338%)" offset="0.964844"/><stop stop-opacity="1" stop-color="rgb(23.927307%, 35.574341%, 93.231201%)" offset="0.96875"/><stop stop-opacity="1" stop-color="rgb(24.023438%, 35.339355%, 93.339539%)" offset="0.972656"/><stop stop-opacity="1" stop-color="rgb(24.119568%, 35.105896%, 93.447876%)" offset="0.976562"/><stop stop-opacity="1" stop-color="rgb(24.215698%, 34.870911%, 93.556213%)" offset="0.980469"/><stop stop-opacity="1" stop-color="rgb(24.313354%, 34.637451%, 93.664551%)" offset="0.984375"/><stop stop-opacity="1" stop-color="rgb(24.409485%, 34.402466%, 93.772888%)" offset="0.988281"/><stop stop-opacity="1" stop-color="rgb(24.505615%, 34.16748%, 93.882751%)" offset="0.992188"/><stop stop-opacity="1" stop-color="rgb(24.601746%, 33.932495%, 93.991089%)" offset="0.996094"/><stop stop-opacity="1" stop-color="rgb(24.699402%, 33.699036%, 94.099426%)" offset="1"/></linearGradient></defs><rect x="-81" width="972" fill="#ffffff" y="-80.999999" height="971.999992" fill-opacity="1"/><rect x="-81" width="972" fill="#ffffff" y="-80.999999" height="971.999992" fill-opacity="1"/><g clip-path="url(#c8289ceb75)"><g clip-path="url(#38a59c7654)"><path fill="url(#7fa4ef6586)" d="M 64.4375 56.4375 L 64.4375 753.902344 L 761.90625 753.902344 L 761.90625 56.4375 Z M 64.4375 56.4375 " fill-rule="nonzero"/></g></g><g fill="#ffffff" fill-opacity="1"><g transform="translate(181.678396, 505.310452)"><g><path d="M 106.804688 3.5 L 114.390625 3.792969 L 130.148438 2.335938 L 135.984375 1.167969 L 141.527344 0.875 L 146.488281 -0.582031 L 168.082031 -9.921875 L 172.167969 -13.421875 L 181.800781 -19.550781 L 190.261719 -28.597656 L 199.597656 -42.3125 L 206.3125 -55.734375 L 210.105469 -68.285156 L 210.394531 -73.828125 L 212.148438 -79.664062 L 213.316406 -101.84375 L 212.4375 -107.679688 L 208.9375 -113.515625 L 200.476562 -116.140625 L 127.230469 -116.140625 L 118.183594 -112.929688 L 115.558594 -107.386719 L 114.972656 -85.5 L 116.140625 -79.957031 L 117.890625 -74.996094 L 123.4375 -72.371094 L 128.980469 -72.371094 L 134.234375 -71.785156 L 151.742188 -72.660156 L 155.828125 -69.453125 L 156.996094 -64.492188 L 154.660156 -59.820312 L 146.199219 -51.652344 L 141.527344 -49.316406 L 130.441406 -45.816406 L 124.605469 -44.9375 L 116.140625 -44.648438 L 107.09375 -45.230469 L 101.84375 -46.398438 L 96.589844 -48.441406 L 86.085938 -53.984375 L 77.332031 -60.988281 L 74.121094 -65.949219 L 71.785156 -70.910156 L 68.574219 -76.164062 L 66.53125 -81.707031 L 64.78125 -110.886719 L 67.992188 -121.394531 L 69.160156 -127.230469 L 73.535156 -138.027344 L 81.125 -146.199219 L 90.753906 -152.910156 L 95.714844 -155.242188 L 107.09375 -159.039062 L 115.265625 -159.328125 L 130.441406 -157.578125 L 135.984375 -156.121094 L 150.574219 -147.074219 L 153.492188 -142.402344 L 159.914062 -137.734375 L 166.332031 -134.816406 L 194.929688 -134.816406 L 200.476562 -135.402344 L 205.4375 -137.152344 L 207.476562 -143.570312 L 198.140625 -165.164062 L 194.054688 -169.25 L 186.757812 -178.589844 L 178.296875 -187.050781 L 158.453125 -199.308594 L 152.035156 -201.058594 L 147.363281 -203.101562 L 141.527344 -203.976562 L 135.109375 -205.726562 L 106.21875 -207.1875 L 88.417969 -204.269531 L 66.242188 -196.390625 L 60.988281 -193.761719 L 46.398438 -183.839844 L 37.644531 -175.671875 L 33.851562 -170.710938 L 30.933594 -166.042969 L 26.554688 -161.957031 L 23.34375 -156.410156 L 14.296875 -134.234375 L 14.007812 -128.980469 L 10.796875 -116.140625 L 11.378906 -101.550781 L 10.796875 -93.378906 L 11.089844 -87.25 L 16.050781 -64.78125 L 22.175781 -48.734375 L 25.386719 -43.1875 L 35.894531 -30.054688 L 44.0625 -21.59375 L 62.738281 -9.046875 L 67.992188 -6.417969 L 84.332031 -0.582031 L 100.675781 2.917969 Z M 106.804688 3.5 "/></g></g></g><g fill="#ffffff" fill-opacity="1"><g transform="translate(405.206281, 505.310452)"><g><path d="M 109.136719 3.5 L 125.480469 3.210938 L 142.988281 0.875 L 164.875 -6.417969 L 174.503906 -11.671875 L 178.878906 -15.175781 L 184.425781 -17.800781 L 192.597656 -24.804688 L 196.390625 -30.054688 L 200.476562 -34.140625 L 213.316406 -53.695312 L 217.691406 -64.78125 L 220.027344 -75.871094 L 220.316406 -81.125 L 221.777344 -86.960938 L 222.070312 -93.089844 L 223.234375 -101.550781 L 222.359375 -116.140625 L 220.316406 -128.105469 L 213.023438 -149.992188 L 207.476562 -160.789062 L 201.058594 -169.542969 L 192.886719 -178.589844 L 184.425781 -185.882812 L 177.714844 -190.554688 L 168.960938 -194.347656 L 164.582031 -197.558594 L 142.113281 -204.558594 L 125.1875 -207.476562 L 117.308594 -207.769531 L 86.375 -203.394531 L 64.492188 -195.222656 L 60.113281 -192.011719 L 54.859375 -189.386719 L 44.9375 -182.089844 L 30.640625 -165.457031 L 21.59375 -149.992188 L 17.21875 -138.902344 L 12.257812 -116.433594 L 11.378906 -92.796875 L 12.257812 -86.667969 L 13.714844 -81.414062 L 14.296875 -75.871094 L 16.925781 -64.78125 L 30.347656 -38.226562 L 33.851562 -34.726562 L 37.644531 -30.054688 L 42.019531 -25.972656 L 45.230469 -22.175781 L 54.859375 -14.589844 L 77.621094 -2.917969 L 86.085938 0 L 92.503906 0.582031 L 103.007812 2.917969 Z M 125.480469 -48.148438 L 109.429688 -48.148438 L 103.007812 -49.023438 L 92.503906 -53.402344 L 87.835938 -56.027344 L 79.957031 -62.449219 L 76.164062 -66.53125 L 72.078125 -72.078125 L 70.617188 -76.746094 L 67.992188 -82 L 65.65625 -92.796875 L 65.65625 -110.597656 L 67.117188 -115.847656 L 67.992188 -121.394531 L 70.328125 -126.644531 L 72.078125 -131.898438 L 79.082031 -141.238281 L 93.671875 -151.160156 L 97.464844 -152.617188 L 108.847656 -155.535156 L 117.015625 -156.121094 L 131.023438 -154.367188 L 136.277344 -153.203125 L 141.527344 -150.867188 L 150.574219 -144.445312 L 161.957031 -132.484375 L 165.457031 -121.394531 L 168.082031 -115.847656 L 168.960938 -110.597656 L 168.375 -92.796875 L 166.042969 -82 L 164 -76.746094 L 160.789062 -71.492188 L 159.039062 -67.117188 L 154.953125 -62.449219 L 140.945312 -52.816406 L 135.691406 -51.359375 L 131.316406 -49.316406 Z M 125.480469 -48.148438 "/></g></g></g></svg>