<svg xmlns="http://www.w3.org/2000/svg" xmlns:xlink="http://www.w3.org/1999/xlink" width="1080" zoomAndPan="magnify" viewBox="0 0 810 809.999993" height="1080" preserveAspectRatio="xMidYMid meet" version="1.0"><defs><g/><clipPath id="2d0e8c47a8"><path d="M 169 330.070312 L 272 330.070312 L 272 475 L 169 475 Z M 169 330.070312 " clip-rule="nonzero"/></clipPath><clipPath id="6a12e73531"><path d="M 132.808594 440.527344 L 306.542969 440.527344 L 306.542969 510.070312 L 132.808594 510.070312 Z M 132.808594 440.527344 " clip-rule="nonzero"/></clipPath></defs><rect x="-81" width="972" fill="#ffffff" y="-80.999999" height="971.999992" fill-opacity="1"/><rect x="-81" width="972" fill="#ffffff" y="-80.999999" height="971.999992" fill-opacity="1"/><rect x="-81" width="972" fill="#ffffff" y="-80.999999" height="971.999992" fill-opacity="1"/><g clip-path="url(#2d0e8c47a8)"><path fill="#ff5757" d="M 220.664062 398.882812 C 209.730469 398.882812 200.867188 389.996094 200.867188 379.019531 C 200.867188 368.054688 209.730469 359.15625 220.664062 359.15625 C 231.613281 359.15625 240.476562 368.054688 240.476562 379.019531 C 240.476562 389.996094 231.613281 398.882812 220.664062 398.882812 Z M 267.765625 361.359375 C 265.183594 355.257812 261.5 349.792969 256.8125 345.078125 C 252.113281 340.378906 246.644531 336.6875 240.574219 334.097656 C 234.261719 331.429688 227.566406 330.070312 220.664062 330.070312 C 213.777344 330.070312 207.085938 331.429688 200.773438 334.097656 C 194.683594 336.6875 189.214844 340.378906 184.53125 345.078125 C 179.84375 349.792969 176.148438 355.273438 173.582031 361.359375 C 170.902344 367.6875 169.5625 374.402344 169.5625 381.320312 C 169.5625 392.921875 177.757812 411.648438 193.917969 436.945312 C 205.777344 455.5 217.796875 471.03125 217.90625 471.175781 L 220.664062 474.738281 L 223.421875 471.175781 C 223.550781 471.03125 235.566406 455.5 247.425781 436.945312 C 263.589844 411.648438 271.78125 392.9375 271.78125 381.320312 C 271.78125 374.402344 270.425781 367.6875 267.765625 361.359375 " fill-opacity="1" fill-rule="nonzero"/></g><g clip-path="url(#6a12e73531)"><path fill="#ff5757" d="M 298.878906 458.871094 C 294.367188 454.714844 287.992188 451.007812 279.925781 447.859375 C 272.640625 445.03125 264.289062 442.761719 255.253906 441.148438 C 254.152344 442.921875 253.003906 444.730469 251.824219 446.566406 C 251.632812 446.871094 251.441406 447.191406 251.234375 447.507812 C 260.910156 449.074219 269.789062 451.375 277.40625 454.347656 C 291.53125 459.847656 299.640625 467.039062 299.640625 474.101562 C 299.640625 481.132812 291.53125 488.339844 277.40625 493.835938 C 262.042969 499.828125 241.542969 503.121094 219.675781 503.121094 C 197.824219 503.121094 177.324219 499.828125 161.960938 493.835938 C 147.824219 488.339844 139.742188 481.132812 139.742188 474.101562 C 139.742188 467.039062 147.824219 459.847656 161.960938 454.347656 C 170.042969 451.183594 179.558594 448.789062 189.933594 447.222656 C 189.789062 447 189.664062 446.789062 189.519531 446.566406 C 188.277344 444.632812 187.082031 442.714844 185.917969 440.828125 C 176.179688 442.476562 167.203125 444.839844 159.457031 447.859375 C 151.378906 451.007812 145 454.714844 140.492188 458.886719 C 135.390625 463.570312 132.808594 468.699219 132.808594 474.101562 C 132.808594 479.484375 135.390625 484.617188 140.492188 489.296875 C 145 493.46875 151.378906 497.175781 159.457031 500.308594 C 175.589844 506.605469 196.996094 510.070312 219.691406 510.070312 C 242.390625 510.070312 263.78125 506.605469 279.925781 500.308594 C 287.992188 497.175781 294.367188 493.46875 298.894531 489.296875 C 303.976562 484.617188 306.558594 479.484375 306.558594 474.101562 C 306.558594 468.683594 303.976562 463.570312 298.878906 458.871094 " fill-opacity="1" fill-rule="nonzero"/></g><path fill="#ff5757" d="M 258.359375 473.253906 C 258.359375 467.132812 250.902344 463.058594 240.90625 460.851562 C 239.410156 463.027344 237.957031 465.105469 236.570312 467.054688 C 239.203125 467.53125 241.640625 468.109375 243.808594 468.8125 C 250.105469 470.824219 251.425781 472.933594 251.425781 473.253906 C 251.425781 473.589844 250.105469 475.699219 243.808594 477.710938 C 239.121094 479.214844 233.191406 480.203125 226.722656 480.589844 C 226.722656 480.605469 226.707031 480.621094 226.707031 480.621094 C 224.730469 480.75 222.71875 480.796875 220.664062 480.796875 C 218.511719 480.796875 216.375 480.730469 214.304688 480.605469 C 214.289062 480.589844 214.289062 480.589844 214.289062 480.574219 C 207.945312 480.171875 202.144531 479.199219 197.535156 477.710938 C 191.242188 475.699219 189.917969 473.589844 189.917969 473.253906 C 189.917969 472.933594 191.242188 470.824219 197.535156 468.8125 C 199.625 468.140625 201.96875 467.566406 204.484375 467.117188 C 203.097656 465.167969 201.648438 463.089844 200.152344 460.902344 C 190.316406 463.136719 182.984375 467.195312 182.984375 473.253906 L 182.984375 473.300781 C 182.984375 483.226562 202.527344 487.746094 220.664062 487.746094 C 238.820312 487.746094 258.359375 483.226562 258.359375 473.300781 L 258.359375 473.253906 " fill-opacity="1" fill-rule="nonzero"/><g fill="#004aad" fill-opacity="1"><g transform="translate(34.365002, 466.874997)"><g><path d="M 86.359375 -94.921875 C 83.554688 -97.953125 80.550781 -100.28125 77.34375 -101.90625 C 74.144531 -103.539062 69.515625 -104.359375 63.453125 -104.359375 C 57.390625 -104.359375 52.898438 -103.484375 49.984375 -101.734375 C 47.078125 -99.992188 45.625 -97.898438 45.625 -95.453125 C 45.625 -91.253906 49.351562 -88.28125 56.8125 -86.53125 L 85.828125 -79.015625 C 96.429688 -76.335938 104.414062 -71.644531 109.78125 -64.9375 C 115.144531 -58.238281 117.828125 -50.226562 117.828125 -40.90625 C 117.828125 -32.28125 115.550781 -24.757812 111 -18.34375 C 106.457031 -11.9375 99.960938 -6.984375 91.515625 -3.484375 C 83.066406 0.00390625 73.191406 1.75 61.890625 1.75 C 49.066406 1.75 37.378906 -0.375 26.828125 -4.625 C 16.285156 -8.882812 8.972656 -14.453125 4.890625 -21.328125 C 4.304688 -22.492188 4.015625 -23.367188 4.015625 -23.953125 C 4.015625 -25.117188 4.65625 -26.164062 5.9375 -27.09375 L 23.953125 -39.5 C 25.234375 -40.320312 26.398438 -40.734375 27.453125 -40.734375 C 28.734375 -40.734375 29.78125 -40.207031 30.59375 -39.15625 C 34.550781 -34.03125 38.566406 -30.414062 42.640625 -28.3125 C 46.722656 -26.21875 52.144531 -25.171875 58.90625 -25.171875 C 65.4375 -25.171875 70.59375 -26.070312 74.375 -27.875 C 78.164062 -29.6875 80.0625 -32.164062 80.0625 -35.3125 C 80.0625 -37.53125 79.128906 -39.453125 77.265625 -41.078125 C 75.398438 -42.710938 72.660156 -43.9375 69.046875 -44.75 L 42.484375 -51.21875 C 31.992188 -53.78125 23.660156 -58.585938 17.484375 -65.640625 C 11.304688 -72.691406 8.21875 -80.820312 8.21875 -90.03125 C 8.21875 -97.601562 10.429688 -104.566406 14.859375 -110.921875 C 19.285156 -117.273438 25.578125 -122.285156 33.734375 -125.953125 C 41.890625 -129.617188 51.332031 -131.453125 62.0625 -131.453125 C 72.550781 -131.453125 82.28125 -129.734375 91.25 -126.296875 C 100.226562 -122.859375 106.695312 -118.285156 110.65625 -112.578125 C 111.46875 -111.523438 111.875 -110.535156 111.875 -109.609375 C 111.875 -108.796875 111.46875 -108.035156 110.65625 -107.328125 L 91.609375 -93.53125 C 91.023438 -93.0625 90.378906 -92.828125 89.671875 -92.828125 C 88.859375 -92.828125 87.753906 -93.523438 86.359375 -94.921875 Z M 86.359375 -94.921875 "/></g></g></g><g fill="#004aad" fill-opacity="1"><g transform="translate(156.896249, 466.874997)"><g/></g></g><g fill="#004aad" fill-opacity="1"><g transform="translate(191.857982, 466.874997)"><g/></g></g><g fill="#004aad" fill-opacity="1"><g transform="translate(226.819715, 466.874997)"><g/></g></g><g fill="#004aad" fill-opacity="1"><g transform="translate(261.781448, 466.874997)"><g/></g></g><g fill="#004aad" fill-opacity="1"><g transform="translate(296.736082, 466.874997)"><g><path d="M 9.09375 -125.6875 C 9.09375 -126.96875 9.382812 -127.957031 9.96875 -128.65625 C 10.550781 -129.351562 11.363281 -129.703125 12.40625 -129.703125 L 45.625 -129.703125 C 47.71875 -129.703125 48.765625 -128.484375 48.765625 -126.046875 L 48.765625 -31.109375 C 48.765625 -30.179688 48.910156 -29.539062 49.203125 -29.1875 C 49.492188 -28.84375 50.050781 -28.671875 50.875 -28.671875 L 103.484375 -28.671875 C 106.171875 -28.671875 107.515625 -27.5625 107.515625 -25.34375 L 107.515625 -3.84375 C 107.515625 -2.675781 107.132812 -1.742188 106.375 -1.046875 C 105.613281 -0.347656 104.535156 0 103.140625 0 L 13.8125 0 C 12.0625 0 10.835938 -0.347656 10.140625 -1.046875 C 9.441406 -1.742188 9.09375 -2.851562 9.09375 -4.375 Z M 9.09375 -125.6875 "/></g></g></g><g fill="#004aad" fill-opacity="1"><g transform="translate(409.138058, 466.874997)"><g><path d="M 123.59375 -129.703125 C 124.644531 -129.703125 125.488281 -129.378906 126.125 -128.734375 C 126.769531 -128.097656 127.09375 -127.257812 127.09375 -126.21875 C 127.09375 -125.519531 127.03125 -124.992188 126.90625 -124.640625 L 86.359375 -4.375 C 85.546875 -1.457031 83.390625 0 79.890625 0 L 51.5625 0 C 48.070312 0 45.921875 -1.457031 45.109375 -4.375 L 4.546875 -124.640625 C 4.316406 -125.335938 4.203125 -125.863281 4.203125 -126.21875 C 4.203125 -127.257812 4.550781 -128.097656 5.25 -128.734375 C 5.945312 -129.378906 6.816406 -129.703125 7.859375 -129.703125 L 41.609375 -129.703125 C 43.816406 -129.703125 45.269531 -128.484375 45.96875 -126.046875 L 69.40625 -49.296875 C 69.632812 -48.484375 69.925781 -48.078125 70.28125 -48.078125 C 70.507812 -48.078125 70.800781 -48.539062 71.15625 -49.46875 L 93 -126.046875 C 93.226562 -127.203125 93.78125 -128.097656 94.65625 -128.734375 C 95.53125 -129.378906 96.492188 -129.703125 97.546875 -129.703125 Z M 123.59375 -129.703125 "/></g></g></g><g fill="#004aad" fill-opacity="1"><g transform="translate(540.419371, 466.874997)"><g><path d="M 9.09375 -125.6875 C 9.09375 -128.363281 10.195312 -129.703125 12.40625 -129.703125 L 106.8125 -129.703125 C 108.90625 -129.703125 109.953125 -128.484375 109.953125 -126.046875 L 109.78125 -105.765625 C 109.78125 -102.617188 108.265625 -101.046875 105.234375 -101.046875 L 52.796875 -101.046875 C 50.109375 -101.046875 48.765625 -99.9375 48.765625 -97.71875 L 48.765625 -82.859375 C 48.765625 -81.691406 49.054688 -80.785156 49.640625 -80.140625 C 50.222656 -79.503906 50.984375 -79.1875 51.921875 -79.1875 L 83.390625 -79.1875 C 85.835938 -79.1875 87.0625 -78.019531 87.0625 -75.6875 L 87.0625 -54.015625 C 87.0625 -52.035156 86.007812 -51.046875 83.90625 -51.046875 L 51.5625 -51.046875 C 50.75 -51.046875 50.078125 -50.8125 49.546875 -50.34375 C 49.023438 -49.875 48.765625 -49.289062 48.765625 -48.59375 L 48.765625 -31.109375 C 48.765625 -30.179688 48.910156 -29.539062 49.203125 -29.1875 C 49.492188 -28.84375 50.050781 -28.671875 50.875 -28.671875 L 107.6875 -28.671875 C 110.25 -28.671875 111.53125 -27.5625 111.53125 -25.34375 L 111.53125 -3.84375 C 111.53125 -2.675781 111.179688 -1.742188 110.484375 -1.046875 C 109.785156 -0.347656 108.734375 0 107.328125 0 L 13.8125 0 C 12.0625 0 10.835938 -0.347656 10.140625 -1.046875 C 9.441406 -1.742188 9.09375 -2.851562 9.09375 -4.375 Z M 9.09375 -125.6875 "/></g></g></g><g fill="#004aad" fill-opacity="1"><g transform="translate(657.715996, 466.874997)"><g><path d="M 34.4375 -129.703125 C 48.300781 -129.703125 56.925781 -129.644531 60.3125 -129.53125 C 83.039062 -128.71875 100.226562 -122.570312 111.875 -111.09375 C 123.53125 -99.613281 129.359375 -84.316406 129.359375 -65.203125 C 129.359375 -52.378906 126.734375 -41.070312 121.484375 -31.28125 C 116.242188 -21.5 108.4375 -13.835938 98.0625 -8.296875 C 87.695312 -2.765625 75.054688 0 60.140625 0 L 14.15625 0 C 12.40625 0 11.125 -0.40625 10.3125 -1.21875 C 9.5 -2.039062 9.09375 -3.382812 9.09375 -5.25 L 9.09375 -125.34375 C 9.09375 -126.96875 9.441406 -128.097656 10.140625 -128.734375 C 10.835938 -129.378906 12.0625 -129.703125 13.8125 -129.703125 Z M 50.515625 -102.265625 C 49.929688 -102.265625 49.492188 -102.085938 49.203125 -101.734375 C 48.910156 -101.390625 48.765625 -100.75 48.765625 -99.8125 L 48.765625 -30.0625 C 48.765625 -29.019531 48.941406 -28.320312 49.296875 -27.96875 C 49.648438 -27.625 50.289062 -27.453125 51.21875 -27.453125 L 52.4375 -27.453125 C 63.976562 -27.453125 72.75 -30.453125 78.75 -36.453125 C 84.75 -42.453125 87.75 -52.210938 87.75 -65.734375 C 87.75 -77.378906 85.476562 -86.054688 80.9375 -91.765625 C 76.394531 -97.484375 69.753906 -100.75 61.015625 -101.5625 Z M 50.515625 -102.265625 "/></g></g></g></svg>