<svg xmlns="http://www.w3.org/2000/svg" xmlns:xlink="http://www.w3.org/1999/xlink" width="1080" zoomAndPan="magnify" viewBox="0 0 810 809.999993" height="1080" preserveAspectRatio="xMidYMid meet" version="1.0"><defs><clipPath id="e089a08667"><path d="M 25.851562 31.367188 L 778.851562 31.367188 L 778.851562 784.367188 L 25.851562 784.367188 Z M 25.851562 31.367188 " clip-rule="nonzero"/></clipPath></defs><rect x="-81" width="972" fill="#ffffff" y="-80.999999" height="971.999992" fill-opacity="1"/><rect x="-81" width="972" fill="#ffffff" y="-80.999999" height="971.999992" fill-opacity="1"/><g clip-path="url(#e089a08667)"><path fill="#3b9670" d="M 402.351562 31.367188 C 194.414062 31.367188 25.851562 199.929688 25.851562 407.867188 C 25.851562 615.800781 194.414062 784.367188 402.351562 784.367188 C 610.285156 784.367188 778.851562 615.800781 778.851562 407.867188 C 778.851562 199.929688 610.285156 31.367188 402.351562 31.367188 Z M 402.351562 163.730469 C 456.796875 163.730469 500.933594 215.890625 500.933594 280.238281 C 500.933594 344.582031 456.796875 396.746094 402.351562 396.746094 C 347.90625 396.746094 303.769531 344.582031 303.769531 280.238281 C 303.769531 215.890625 347.90625 163.730469 402.351562 163.730469 Z M 569.21875 622.589844 L 235.484375 622.589844 C 218.75 622.589844 205.1875 609.023438 205.1875 592.289062 C 205.1875 513.992188 293.457031 450.515625 402.351562 450.515625 C 511.242188 450.515625 599.515625 513.992188 599.515625 592.289062 C 599.515625 609.023438 585.953125 622.589844 569.21875 622.589844 Z M 569.21875 622.589844 " fill-opacity="1" fill-rule="nonzero"/></g></svg>