<svg xmlns="http://www.w3.org/2000/svg" xmlns:xlink="http://www.w3.org/1999/xlink" width="1080" zoomAndPan="magnify" viewBox="0 0 810 809.999993" height="1080" preserveAspectRatio="xMidYMid meet" version="1.0"><defs><clipPath id="2397028ed9"><path d="M 38.085938 195.261719 L 771 195.261719 L 771 613 L 38.085938 613 Z M 38.085938 195.261719 " clip-rule="nonzero"/></clipPath><clipPath id="ea858a312f"><path d="M 76.335938 195.261719 L 733.664062 195.261719 C 743.808594 195.261719 753.535156 199.292969 760.710938 206.464844 C 767.882812 213.636719 771.914062 223.367188 771.914062 233.511719 L 771.914062 576.488281 C 771.914062 586.632812 767.882812 596.363281 760.710938 603.535156 C 753.535156 610.707031 743.808594 614.738281 733.664062 614.738281 L 76.335938 614.738281 C 66.191406 614.738281 56.464844 610.707031 49.289062 603.535156 C 42.117188 596.363281 38.085938 586.632812 38.085938 576.488281 L 38.085938 233.511719 C 38.085938 223.367188 42.117188 213.636719 49.289062 206.464844 C 56.464844 199.292969 66.191406 195.261719 76.335938 195.261719 " clip-rule="nonzero"/></clipPath></defs><rect x="-81" width="972" fill="#ffffff" y="-80.999999" height="971.999992" fill-opacity="1"/><rect x="-81" width="972" fill="#ffffff" y="-80.999999" height="971.999992" fill-opacity="1"/><g clip-path="url(#2397028ed9)"><g clip-path="url(#ea858a312f)"><path fill="#fcfeff" d="M 38.085938 195.261719 L 770.882812 195.261719 L 770.882812 612.917969 L 38.085938 612.917969 Z M 38.085938 195.261719 " fill-opacity="1" fill-rule="nonzero"/></g></g></svg>